<?xml version="1.0" standalone="no"?>
<!DOCTYPE svg PUBLIC "-//W3C//DTD SVG 20010904//EN"
 "http://www.w3.org/TR/2001/REC-SVG-20010904/DTD/svg10.dtd">
<svg version="1.0" xmlns="http://www.w3.org/2000/svg"
 width="1366.000000pt" height="1366.000000pt" viewBox="0 0 1366.000000 1366.000000"
 preserveAspectRatio="xMidYMid meet">
<metadata>
Created by potrace 1.14, written by Peter Selinger 2001-2017
</metadata>
<g transform="translate(0.000000,1366.000000) scale(0.100000,-0.100000)"
fill="#000000" stroke="none">
<path d="M8977 13183 c-153 -206 -258 -403 -331 -624 -87 -260 -119 -523 -98
-796 13 -166 37 -312 55 -330 7 -6 44 -23 82 -38 39 -16 114 -47 168 -71 53
-24 99 -44 101 -44 1 0 6 82 9 183 9 281 55 504 137 667 41 81 70 110 87 87
18 -22 60 -141 82 -227 39 -158 53 -254 58 -420 5 -154 -4 -266 -33 -442 -6
-34 -4 -38 37 -65 24 -15 81 -54 126 -85 45 -32 85 -58 90 -58 10 0 132 168
190 261 173 277 251 579 224 858 -25 245 -110 452 -279 677 -79 105 -247 276
-362 367 -90 73 -256 187 -270 187 -4 0 -37 -39 -73 -87z"/>
<path d="M10710 12235 c-181 -23 -335 -62 -502 -127 l-77 -29 0 -132 c1 -203
-39 -401 -118 -585 -19 -46 -33 -85 -30 -88 3 -3 49 17 103 44 125 62 214 94
336 121 143 31 157 17 86 -86 -148 -212 -378 -416 -632 -561 -49 -28 -94 -53
-99 -55 -6 -2 41 -56 105 -120 l116 -117 134 9 c149 11 250 29 364 67 531 173
890 672 994 1381 26 176 26 240 3 247 -122 38 -592 56 -783 31z"/>
<path d="M7155 11470 c-715 -40 -1372 -289 -1925 -728 -118 -94 -403 -378
-494 -492 -337 -423 -552 -922 -622 -1445 -24 -176 -24 -550 -1 -726 70 -525
282 -1023 614 -1438 93 -117 317 -347 433 -446 499 -425 1115 -689 1800 -771
200 -24 601 -24 800 0 677 81 1246 319 1760 735 134 108 352 326 460 461 362
449 584 983 640 1539 13 133 13 429 0 562 -79 790 -481 1504 -1148 2038 -348
279 -798 499 -1261 616 -308 78 -714 114 -1056 95z m2300 -2620 c341 -49 505
-208 505 -491 0 -305 -234 -626 -663 -908 -734 -482 -1956 -752 -2987 -660
-935 83 -1573 439 -1638 914 -39 284 148 473 590 600 260 74 545 120 1383 225
543 67 718 92 1305 184 493 77 735 111 925 130 168 16 483 19 580 6z"/>
<path d="M8255 8184 c-225 -128 -414 -235 -420 -237 -15 -5 50 -129 95 -179
178 -203 500 -221 701 -41 160 144 211 381 123 573 -26 57 -70 121 -82 119 -4
-1 -191 -106 -417 -235z"/>
<path d="M5685 7966 c-53 -127 -34 -313 46 -437 224 -350 756 -285 888 109 20
57 28 142 15 142 -3 0 -212 50 -464 110 -252 61 -461 110 -465 110 -3 0 -12
-15 -20 -34z"/>
<path d="M2435 10890 c-423 -20 -782 -77 -1043 -166 -124 -42 -293 -128 -380
-194 -73 -54 -172 -166 -172 -192 0 -7 15 -8 42 -4 64 10 612 8 803 -4 697
-42 1540 -137 2434 -275 123 -19 230 -35 237 -35 7 0 34 32 60 72 25 40 71
105 101 146 30 41 53 75 51 77 -5 6 -522 73 -798 104 -861 97 -1685 140 -2190
113 -120 -7 -219 -8 -240 -3 -19 5 -29 9 -21 10 8 1 22 7 30 15 32 28 270 71
536 98 173 17 974 17 1235 0 459 -31 918 -75 1360 -133 l235 -31 122 123 c67
68 120 125 118 127 -13 13 -823 102 -1105 122 -384 26 -1149 43 -1415 30z"/>
<path d="M10723 9695 c-54 -15 -113 -42 -146 -67 -16 -12 -15 -18 18 -103 94
-236 195 -681 195 -857 0 -40 0 -40 33 -34 39 7 220 97 224 111 2 6 -22 23
-53 38 -85 42 -118 71 -152 135 -66 124 -65 254 4 391 44 88 92 136 173 175
56 26 77 31 142 31 l77 -1 -27 35 c-43 57 -118 109 -187 131 -88 27 -233 34
-301 15z"/>
<path d="M11084 9331 c-129 -79 -166 -289 -65 -368 69 -55 288 -134 493 -178
148 -32 180 -31 235 0 87 52 129 180 86 269 l-16 35 -39 -20 c-49 -25 -93 -86
-115 -158 -9 -31 -22 -62 -28 -69 -20 -22 -36 11 -37 75 -1 87 19 141 74 195
l47 48 -44 26 c-126 73 -415 164 -523 164 -20 0 -51 -9 -68 -19z"/>
<path d="M3287 8363 c-3 -5 -30 -69 -62 -143 -31 -74 -62 -140 -68 -146 -7 -6
-73 -37 -147 -69 -74 -32 -139 -61 -143 -65 -4 -4 60 -35 142 -70 l150 -64 68
-154 c52 -120 69 -150 75 -136 5 11 35 80 67 154 l58 134 152 66 151 65 -37
19 c-21 10 -85 39 -143 63 -58 25 -110 49 -116 54 -7 6 -40 75 -74 154 -34 80
-64 145 -66 145 -1 0 -5 -3 -7 -7z"/>
<path d="M3761 7285 c-17 -38 -35 -77 -39 -84 -5 -8 -46 -31 -91 -50 l-83 -35
53 -23 c112 -47 119 -53 151 -128 16 -38 33 -73 37 -78 4 -4 22 29 41 74 29
71 37 82 69 95 20 8 58 25 86 37 l49 23 -83 35 c-91 37 -78 23 -141 164 l-18
40 -31 -70z"/>
<path d="M10311 6797 c-22 -35 -41 -70 -41 -78 0 -8 16 -59 36 -114 163 -457
198 -1000 98 -1543 -160 -875 -636 -1747 -1422 -2604 -120 -132 -382 -395
-544 -546 -38 -35 -68 -67 -68 -71 0 -16 107 -148 185 -230 260 -271 568 -443
936 -523 89 -19 134 -22 314 -22 185 0 219 2 288 22 261 73 444 187 688 431
200 201 361 422 495 679 l38 73 -17 67 c-45 171 -146 318 -320 463 l-58 49
-72 -58 c-164 -132 -391 -273 -472 -292 -16 -4 -39 -11 -50 -15 l-20 -8 20 22
c11 13 40 42 65 65 123 113 292 281 370 369 l87 97 11 128 c7 70 17 206 23
302 l10 175 -27 22 c-58 46 -238 146 -332 185 -53 22 -148 53 -211 69 -62 15
-116 31 -120 34 -3 4 3 13 13 21 15 10 52 14 140 14 134 0 268 -18 424 -55 57
-14 108 -25 113 -25 19 0 3 601 -26 940 -57 660 -190 1262 -390 1755 -52 128
-114 265 -120 265 -1 0 -21 -28 -44 -63z"/>
<path d="M10113 6519 c-75 -98 -243 -276 -350 -371 -374 -334 -796 -578 -1268
-732 -119 -38 -400 -110 -481 -121 -88 -13 -77 12 -144 -330 -94 -485 -318
-1272 -566 -1991 -53 -153 -103 -300 -112 -326 -13 -41 -14 -52 -2 -89 31 -94
153 -233 279 -318 99 -68 305 -161 354 -161 39 0 378 219 613 395 69 52 129
95 134 95 4 0 25 12 46 26 26 18 33 20 22 7 -9 -10 -23 -33 -31 -51 -18 -44
-194 -248 -355 -414 -145 -148 -143 -141 -45 -153 l52 -7 148 140 c954 901
1556 1823 1787 2737 111 440 128 970 45 1383 -18 89 -85 322 -92 322 -2 0 -17
-18 -34 -41z"/>
<path d="M5870 5385 c-516 -63 -843 -261 -960 -583 -110 -303 -36 -963 167
-1477 111 -281 321 -649 402 -703 57 -38 185 -72 305 -82 115 -9 394 4 409 19
4 4 1 60 -8 125 -18 138 -19 211 -4 326 20 164 86 368 133 411 21 20 21 20 27
-3 3 -13 1 -45 -4 -73 -5 -27 -9 -138 -10 -245 0 -199 16 -348 49 -460 13 -45
18 -50 37 -45 12 4 29 8 37 11 9 2 31 34 49 71 64 131 159 242 291 340 76 56
220 137 302 169 l68 27 50 156 c200 632 280 887 280 899 0 7 -9 25 -20 40 -10
15 -33 65 -50 111 -86 235 -267 508 -517 779 l-68 74 -110 20 c-61 11 -180 38
-265 61 -148 39 -162 41 -320 43 -91 1 -212 -4 -270 -11z"/>
<path d="M7670 5248 c-41 -5 -186 -9 -323 -10 -182 0 -245 -3 -238 -12 4 -6
46 -58 93 -116 146 -183 300 -438 361 -599 9 -25 19 -43 21 -40 4 4 176 765
176 780 0 5 -3 8 -7 8 -5 -1 -42 -6 -83 -11z"/>
<path d="M11975 3791 l-47 -109 -109 -47 c-60 -26 -109 -51 -109 -55 0 -4 48
-27 108 -52 l107 -46 49 -111 c28 -61 53 -111 56 -111 3 0 26 48 51 106 25 60
53 112 64 119 11 7 62 30 113 51 50 21 92 41 92 44 0 3 -50 28 -111 55 l-111
50 -46 108 c-26 59 -49 107 -53 107 -3 0 -28 -49 -54 -109z"/>
<path d="M11317 3213 c-4 -6 11 -23 33 -38 70 -48 173 -166 214 -244 57 -110
65 -150 49 -246 -21 -129 -63 -285 -94 -354 -16 -35 -29 -65 -29 -67 0 -2 20
-15 43 -29 36 -20 57 -25 116 -25 81 0 100 7 153 58 63 60 85 167 68 323 -24
214 -79 338 -210 471 -65 66 -102 95 -153 119 -69 32 -179 50 -190 32z"/>
<path d="M11090 3034 l-53 -65 24 -16 c13 -8 74 -66 134 -127 78 -79 125 -137
162 -199 28 -48 54 -84 57 -79 11 19 36 154 36 199 0 58 -43 136 -119 217 -53
56 -159 136 -180 136 -5 0 -33 -30 -61 -66z"/>
<path d="M6320 2409 c-141 -29 -287 -41 -457 -38 -107 3 -159 1 -154 -6 5 -5
67 -94 139 -196 92 -130 140 -190 159 -197 96 -38 216 -49 311 -28 73 15 190
70 199 92 2 7 -14 84 -37 171 -49 191 -60 223 -68 222 -4 -1 -45 -10 -92 -20z"/>
<path d="M7165 2228 c-21 -46 -265 -750 -265 -764 0 -17 126 -133 193 -177 79
-53 229 -122 305 -142 l64 -16 46 38 c73 59 269 259 353 358 100 119 230 298
221 306 -4 4 -43 14 -87 24 -123 26 -365 109 -469 160 -107 52 -206 119 -289
194 l-57 53 -15 -34z"/>
<path d="M5713 1894 c-98 -21 -218 -72 -283 -119 -163 -121 -200 -299 -73
-361 33 -16 61 -19 223 -18 350 2 721 71 849 159 25 18 60 54 76 80 25 41 31
61 34 127 2 43 0 78 -4 78 -3 0 -27 -9 -53 -20 -167 -69 -359 -69 -549 2 -30
11 -64 33 -82 53 -34 39 -44 40 -138 19z"/>
<path d="M6725 1333 c-123 -27 -266 -93 -309 -141 -29 -33 -66 -147 -66 -203
0 -67 21 -109 82 -164 218 -196 572 -155 844 98 l68 64 -54 18 c-174 58 -347
163 -465 283 -49 50 -58 55 -100 45z"/>
<path d="M5832 985 c-18 -38 -36 -77 -40 -85 -10 -17 -49 -39 -131 -73 l-53
-23 78 -34 c44 -18 86 -40 95 -49 9 -9 31 -51 49 -94 18 -42 34 -76 35 -75 2
2 19 42 40 89 l36 87 77 32 c42 17 81 35 85 39 4 5 -29 24 -75 44 -46 19 -86
42 -90 49 -5 7 -23 47 -41 88 l-34 75 -31 -70z"/>
</g>
</svg>
